G75*
G70*
%OFA0B0*%
%FSLAX24Y24*%
%IPPOS*%
%LPD*%
%AMOC8*
5,1,8,0,0,1.08239X$1,22.5*
%
%ADD10C,0.1890*%
%ADD11C,0.0480*%
%ADD12C,0.0600*%
%ADD13C,0.0660*%
%ADD14C,0.0700*%
%ADD15OC8,0.0480*%
%ADD16OC8,0.0600*%
%ADD17C,0.0100*%
%ADD18C,0.0400*%
D10*
X009084Y025468D03*
X007234Y026649D03*
X009084Y027790D03*
D11*
X012545Y028385D02*
X012545Y028865D01*
X013545Y028865D02*
X013545Y028385D01*
X013545Y025865D02*
X013545Y025385D01*
X012545Y025385D02*
X012545Y025865D01*
X012545Y024365D02*
X012545Y023885D01*
X013545Y023885D02*
X013545Y024365D01*
X013545Y021365D02*
X013545Y020885D01*
X012545Y020885D02*
X012545Y021365D01*
X012545Y019865D02*
X012545Y019385D01*
X013545Y019385D02*
X013545Y019865D01*
X013545Y016865D02*
X013545Y016385D01*
X012545Y016385D02*
X012545Y016865D01*
X012545Y015365D02*
X012545Y014885D01*
X013545Y014885D02*
X013545Y015365D01*
X013545Y012365D02*
X013545Y011885D01*
X012545Y011885D02*
X012545Y012365D01*
X012545Y010865D02*
X012545Y010385D01*
X013545Y010385D02*
X013545Y010865D01*
X013545Y007865D02*
X013545Y007385D01*
X012545Y007385D02*
X012545Y007865D01*
X017545Y007865D02*
X017545Y007385D01*
X018545Y007385D02*
X018545Y007865D01*
X019805Y007125D02*
X020285Y007125D01*
X020285Y006125D02*
X019805Y006125D01*
X022805Y006125D02*
X023285Y006125D01*
X023285Y007125D02*
X022805Y007125D01*
X022805Y011125D02*
X023285Y011125D01*
X023285Y012125D02*
X022805Y012125D01*
X022805Y014125D02*
X023285Y014125D01*
X023285Y015125D02*
X022805Y015125D01*
X020285Y015125D02*
X019805Y015125D01*
X019805Y014125D02*
X020285Y014125D01*
X018545Y014885D02*
X018545Y015365D01*
X017545Y015365D02*
X017545Y014885D01*
X017545Y016385D02*
X017545Y016865D01*
X018545Y016865D02*
X018545Y016385D01*
X019805Y019125D02*
X020285Y019125D01*
X020285Y020125D02*
X019805Y020125D01*
X018545Y019865D02*
X018545Y019385D01*
X017545Y019385D02*
X017545Y019865D01*
X017545Y020885D02*
X017545Y021365D01*
X018545Y021365D02*
X018545Y020885D01*
X019805Y022125D02*
X020285Y022125D01*
X020285Y023125D02*
X019805Y023125D01*
X018545Y023885D02*
X018545Y024365D01*
X017545Y024365D02*
X017545Y023885D01*
X017545Y025385D02*
X017545Y025865D01*
X018545Y025865D02*
X018545Y025385D01*
X019805Y027125D02*
X020285Y027125D01*
X020285Y028125D02*
X019805Y028125D01*
X018545Y028385D02*
X018545Y028865D01*
X017545Y028865D02*
X017545Y028385D01*
X022805Y028125D02*
X023285Y028125D01*
X023285Y027125D02*
X022805Y027125D01*
X022805Y023125D02*
X023285Y023125D01*
X023285Y022125D02*
X022805Y022125D01*
X022805Y020125D02*
X023285Y020125D01*
X023285Y019125D02*
X022805Y019125D01*
X020285Y012125D02*
X019805Y012125D01*
X019805Y011125D02*
X020285Y011125D01*
X018545Y010865D02*
X018545Y010385D01*
X017545Y010385D02*
X017545Y010865D01*
X017545Y011885D02*
X017545Y012365D01*
X018545Y012365D02*
X018545Y011885D01*
D12*
X024545Y015725D03*
X024545Y016625D03*
X024545Y017525D03*
X024545Y018425D03*
X024545Y019325D03*
X025545Y018875D03*
X025545Y017975D03*
X025545Y017075D03*
X025545Y016175D03*
X026545Y015725D03*
X026545Y016625D03*
X026545Y017525D03*
X026545Y018425D03*
X026545Y019325D03*
X025545Y019775D03*
X008045Y019525D03*
X008045Y018625D03*
X008045Y017725D03*
X008045Y016825D03*
X008045Y015925D03*
X007045Y015475D03*
X007045Y016375D03*
X007045Y017275D03*
X007045Y018175D03*
X007045Y019075D03*
X006045Y018625D03*
X006045Y017725D03*
X006045Y016825D03*
X006045Y015925D03*
X006045Y019525D03*
D13*
X008045Y008955D02*
X008045Y008295D01*
X009045Y008295D02*
X009045Y008955D01*
X010045Y008955D02*
X010045Y008295D01*
D14*
X010045Y006625D03*
X008045Y006625D03*
D15*
X005545Y008625D03*
X005545Y009625D03*
X013545Y005625D03*
X017545Y005625D03*
D16*
X010545Y014125D03*
X010545Y015125D03*
X009545Y015125D03*
X009545Y014125D03*
X009545Y016125D03*
X009545Y017125D03*
X009545Y018125D03*
X009545Y019125D03*
X009545Y020125D03*
X010545Y020125D03*
X010545Y019125D03*
X010545Y018125D03*
X010545Y017125D03*
X010545Y016125D03*
X010545Y021125D03*
X009545Y021125D03*
D17*
X007545Y006125D02*
X013045Y006125D01*
X013545Y005625D01*
X014045Y005125D02*
X016045Y007125D01*
X015545Y008125D02*
X017045Y006625D01*
X019545Y006625D01*
X020045Y006125D01*
X017545Y005625D02*
X024045Y005625D01*
X024045Y007125D01*
X022045Y009125D01*
X013045Y009125D01*
X011545Y007625D01*
X008045Y007625D01*
X007045Y008625D01*
X005545Y008625D01*
X005045Y009125D02*
X004545Y008625D01*
X004545Y007625D01*
X006045Y007625D01*
X007545Y006125D01*
X008045Y006625D02*
X010045Y006625D01*
X009545Y005625D02*
X010045Y005125D01*
X014045Y005125D01*
X014545Y006625D02*
X012545Y006625D01*
X012045Y007125D01*
X008045Y007125D01*
X007045Y008125D01*
X005045Y008125D01*
X005045Y009125D02*
X007545Y009125D01*
X008045Y008625D01*
X006545Y010625D02*
X012545Y010625D01*
X011545Y012125D02*
X011045Y012625D01*
X008545Y012625D01*
X009545Y014125D02*
X006545Y014125D01*
X006045Y014625D01*
X007045Y015625D01*
X007045Y015475D01*
X006545Y014625D02*
X012045Y014625D01*
X012545Y014125D01*
X020045Y014125D01*
X021045Y014625D02*
X022045Y015625D01*
X024545Y015625D01*
X024545Y015725D01*
X024045Y016125D02*
X024545Y016625D01*
X025045Y017125D02*
X025545Y017125D01*
X025545Y017075D01*
X026045Y017625D02*
X026545Y017625D01*
X026545Y017525D01*
X026045Y017625D02*
X026045Y020125D01*
X025545Y020625D01*
X025045Y020625D01*
X024045Y019625D01*
X018545Y019625D01*
X018545Y021125D02*
X025545Y021125D01*
X027045Y019625D01*
X027045Y018625D01*
X026545Y018625D01*
X026545Y018425D01*
X027045Y020125D02*
X027045Y024125D01*
X023545Y027625D01*
X020545Y027625D01*
X020045Y028125D01*
X018545Y026625D02*
X017545Y025625D01*
X016045Y027125D01*
X010045Y027125D01*
X009545Y027625D01*
X009084Y027790D01*
X010545Y026625D02*
X009545Y025625D01*
X009084Y025468D01*
X009045Y024125D02*
X006045Y024125D01*
X004545Y022625D01*
X004545Y020625D01*
X004545Y018625D01*
X006045Y018625D01*
X005045Y019625D02*
X005545Y020125D01*
X007045Y020125D01*
X007545Y019625D01*
X007545Y018625D01*
X008045Y018625D01*
X009045Y018625D01*
X009545Y019125D01*
X010045Y018625D02*
X009545Y018125D01*
X008545Y018125D01*
X008045Y017725D02*
X008045Y017625D01*
X010045Y017625D01*
X010545Y018125D01*
X012045Y018125D01*
X011545Y018625D02*
X010045Y018625D01*
X010545Y019125D02*
X011045Y019125D01*
X011545Y019625D01*
X011545Y020625D01*
X008045Y020625D01*
X008045Y021125D02*
X005545Y021125D01*
X005545Y020625D02*
X007045Y020625D01*
X007545Y020125D01*
X009545Y020125D01*
X009545Y021125D02*
X010545Y022125D01*
X013545Y022125D01*
X015545Y020125D01*
X013045Y020125D02*
X013045Y017625D01*
X013545Y017625D01*
X016045Y015125D01*
X017545Y016625D02*
X018545Y017625D01*
X019545Y017625D01*
X021045Y019125D01*
X023045Y019125D01*
X024545Y018625D02*
X021545Y018625D01*
X020045Y020125D02*
X020545Y020625D01*
X024545Y020625D01*
X023045Y022125D02*
X022545Y022625D01*
X009545Y022625D01*
X008045Y021125D01*
X008045Y019625D02*
X008045Y019525D01*
X008045Y019625D02*
X011045Y019625D01*
X011545Y018625D02*
X012545Y019625D01*
X013045Y020125D02*
X012545Y020625D01*
X012545Y021125D01*
X012045Y023625D02*
X010045Y023625D01*
X010045Y023125D02*
X009045Y024125D01*
X010545Y026625D02*
X013545Y026625D01*
X016545Y023625D01*
X018545Y026625D02*
X022545Y026625D01*
X023045Y027125D01*
X023045Y028125D02*
X023545Y028125D01*
X027545Y024125D01*
X024545Y018625D02*
X024545Y018425D01*
X025045Y017125D02*
X025045Y015125D01*
X024545Y014625D01*
X021545Y014625D01*
X022545Y013625D02*
X012045Y013625D01*
X012045Y014625D02*
X011045Y015625D01*
X011045Y016625D01*
X010045Y016625D01*
X009545Y017125D01*
X010545Y017125D02*
X011045Y017625D01*
X013045Y017625D01*
X010545Y015125D02*
X010045Y015625D01*
X008545Y015625D01*
X008045Y016125D01*
X008045Y015925D01*
X008045Y015125D02*
X007045Y016125D01*
X007045Y016375D01*
X007045Y016125D02*
X006045Y015125D01*
X004545Y015125D01*
X004045Y015125D02*
X004045Y009125D01*
X004545Y009125D01*
X005045Y010125D02*
X010545Y010125D01*
X011045Y009625D01*
X014045Y009625D01*
X017545Y013125D01*
X018045Y013125D02*
X023545Y013125D01*
X025545Y015125D01*
X025545Y016175D01*
X026545Y015725D02*
X026545Y015625D01*
X027045Y015625D01*
X027045Y011625D01*
X026545Y011125D01*
X024545Y011125D01*
X024045Y011625D01*
X022545Y011625D01*
X022045Y012125D01*
X020045Y012125D01*
X019045Y011625D02*
X021545Y011625D01*
X022545Y010625D01*
X026545Y010625D01*
X027545Y011625D01*
X027545Y016625D01*
X026545Y016625D01*
X024045Y016125D02*
X019545Y016125D01*
X018545Y015125D01*
X018045Y013125D02*
X018045Y011625D01*
X018545Y011125D01*
X018545Y010625D01*
X019045Y011625D02*
X018545Y012125D01*
X015045Y013125D02*
X010545Y013125D01*
X009545Y014125D01*
X008545Y015125D02*
X008045Y015125D01*
X006045Y014125D02*
X005045Y013125D01*
X005045Y010125D01*
X005545Y011125D02*
X010045Y011125D01*
X013545Y008625D02*
X012545Y007625D01*
X013545Y007625D02*
X014545Y008625D01*
X021545Y008625D01*
X023045Y007125D01*
X022545Y013625D02*
X023045Y014125D01*
X012545Y024125D02*
X012045Y023625D01*
X006045Y016825D02*
X006045Y016625D01*
X005045Y015625D01*
X004545Y015625D01*
X004045Y015125D01*
D18*
X004545Y015125D03*
X006045Y014125D03*
X006545Y014625D03*
X008545Y015125D03*
X008545Y012625D03*
X010045Y011125D03*
X010545Y010125D03*
X011545Y012125D03*
X012045Y013625D03*
X015045Y013125D03*
X016045Y015125D03*
X017545Y013125D03*
X021045Y014625D03*
X021545Y014625D03*
X021545Y018625D03*
X024545Y020625D03*
X027045Y020125D03*
X027545Y024125D03*
X016545Y023625D03*
X015545Y020125D03*
X012045Y018125D03*
X011045Y019625D03*
X008545Y018125D03*
X008045Y020625D03*
X007045Y020625D03*
X005545Y020625D03*
X005545Y021125D03*
X004545Y020625D03*
X005045Y019625D03*
X010045Y023125D03*
X010045Y023625D03*
X010545Y022125D03*
X005545Y011125D03*
X006545Y010625D03*
X004545Y009125D03*
X005045Y008125D03*
X009545Y005625D03*
X013545Y008625D03*
X015545Y008125D03*
X016045Y007125D03*
X014545Y006625D03*
M02*
