%
M48
M72
T01C0.0250
T02C0.0330
T03C0.0400
T04C0.0460
T05C0.1100
T06C0.1250
T07C0.1510
%
T01
X5045Y8125
X4545Y9125
X5545Y11125
X6545Y10625
X8545Y12625
X10045Y11125
X10545Y10125
X11905Y11367
X11545Y12125
X12045Y13625
X15045Y13125
X16528Y13126
X17545Y13125
X16045Y15125
X12045Y18125
X11045Y19625
X8545Y18125
X8045Y20625
X7045Y20625
X5545Y20625
X5545Y21125
X4545Y20625
X5045Y19625
X4545Y15125
X6045Y14125
X6545Y14625
X8545Y15125
X13545Y8625
X15545Y8125
X14545Y6625
X21045Y14625
X21545Y14625
X21545Y18625
X24545Y20625
X27045Y20125
X27545Y24125
X16545Y23625
X15545Y20125
X10545Y22125
X10045Y23125
X10045Y23625
T02
X12545Y24125
X13545Y24125
X13545Y25625
X12545Y25625
X12545Y28625
X13545Y28625
X17545Y28625
X18545Y28625
X20045Y28125
X20045Y27125
X18545Y25625
X17545Y25625
X17545Y24125
X18545Y24125
X20045Y23125
X20045Y22125
X18545Y21125
X17545Y21125
X17545Y19625
X18545Y19625
X20045Y19125
X20045Y20125
X23045Y20125
X23045Y19125
X23045Y22125
X23045Y23125
X23045Y27125
X23045Y28125
X13545Y21125
X12545Y21125
X12545Y19625
X13545Y19625
X13545Y16625
X12545Y16625
X12545Y15125
X13545Y15125
X13545Y12125
X12545Y12125
X12545Y10625
X13545Y10625
X13545Y7625
X12545Y7625
X13545Y5625
X17545Y5625
X17545Y7625
X18545Y7625
X20045Y7125
X20045Y6125
X23045Y6125
X23045Y7125
X23045Y11125
X23045Y12125
X23045Y14125
X23045Y15125
X20045Y15125
X20045Y14125
X18545Y15125
X17545Y15125
X17545Y16625
X18545Y16625
X18545Y12125
X17545Y12125
X17545Y10625
X18545Y10625
X20045Y11125
X20045Y12125
X5545Y9625
X5545Y8625
T03
X9545Y14125
X9545Y15125
X10545Y15125
X10545Y14125
X10545Y16125
X10545Y17125
X10545Y18125
X10545Y19125
X10545Y20125
X9545Y20125
X9545Y19125
X9545Y18125
X9545Y17125
X9545Y16125
X8045Y15925
X8045Y16825
X8045Y17725
X8045Y18625
X8045Y19525
X7045Y19075
X7045Y18175
X7045Y17275
X7045Y16375
X7045Y15475
X6045Y15925
X6045Y16825
X6045Y17725
X6045Y18625
X6045Y19525
X9545Y21125
X10545Y21125
X24545Y19325
X24545Y18425
X24545Y17525
X24545Y16625
X24545Y15725
X25545Y16175
X25545Y17075
X25545Y17975
X25545Y18875
X25545Y19775
X26545Y19325
X26545Y18425
X26545Y17525
X26545Y16625
X26545Y15725
T04
X10045Y8625
X9045Y8625
X8045Y8625
X8045Y6625
X10045Y6625
T05
X9084Y25468
X7234Y26649
X9084Y27790
T06
X7045Y22545
X7045Y12705
X25545Y12705
X25545Y22545
T07
X5045Y6125
X27545Y6125
X27545Y28125
X5045Y28125
M30
